<svg width="25" height="24" viewBox="0 0 25 24" fill="none" xmlns="http://www.w3.org/2000/svg">
<path d="M2.92981 14.954L1.06521 14.5426C0.518726 15.6452 0.00012207 16.8837 0.00012207 18.3105C0.00012207 19.7101 0.497729 20.9336 1.06521 22.0785L7.37317 20.687V23.4312L9.57043 22.3325L11.7677 23.4312V20.6884L18.0264 22.0792C18.5687 20.9853 19.0919 19.7435 19.0919 18.3105C19.0919 18.0636 19.0737 17.8177 19.0429 17.5781H25.0001V0H2.92981V14.954ZM1.901 20.394C1.71047 19.8902 1.46497 19.0898 1.46497 18.3105C1.46497 17.5312 1.71052 16.7307 1.901 16.227L7.37317 17.4342V19.1869L1.901 20.394ZM10.3029 21.061L9.57043 20.6948L8.83801 21.061V17.5781H10.3029V21.061ZM17.1914 20.3931L11.7677 19.1878V17.4332L17.1914 16.2279C17.3819 16.7318 17.6271 17.5317 17.6271 18.3105C17.6271 19.0895 17.3818 19.8895 17.1914 20.3931ZM23.5353 1.46484V16.1133H18.7039C18.4638 15.3788 18.2702 15.0319 18.0264 14.5418L10.9549 16.1133H8.18547L4.39465 15.277V1.46484H23.5353Z" fill="black"/>
<path d="M8.83801 2.92969H19.0919V4.39453H8.83801V2.92969Z" fill="black"/>
<path d="M5.8595 8.78906H22.0704V10.2539H5.8595V8.78906Z" fill="black"/>
<path d="M8.83801 11.7188H19.0919V13.1836H8.83801V11.7188Z" fill="black"/>
<path d="M10.3029 5.85938H11.7677V7.32422H10.3029V5.85938Z" fill="black"/>
<path d="M13.2325 5.85938H14.6974V7.32422H13.2325V5.85938Z" fill="black"/>
<path d="M16.1622 5.85938H17.6271V7.32422H16.1622V5.85938Z" fill="black"/>
</svg>
