<svg width="25" height="25" viewBox="0 0 25 25" fill="none" xmlns="http://www.w3.org/2000/svg">
<path d="M20.2646 19.1457L19.6146 19.5793L21.145 21.875H3.85481L5.67786 19.1406H15.6025V18.3594H5.46887C5.40458 18.3594 5.34128 18.3752 5.28458 18.4055C5.22789 18.4359 5.17956 18.4797 5.14387 18.5332L2.80012 22.0488C2.75744 22.1131 2.73462 22.1885 2.7345 22.2656V23.4375C2.7345 23.6447 2.81681 23.8434 2.96332 23.9899C3.10983 24.1364 3.30855 24.2188 3.51575 24.2188H21.4845C21.6917 24.2188 21.8904 24.1364 22.0369 23.9899C22.1834 23.8434 22.2657 23.6447 22.2657 23.4375V22.2656C22.2656 22.1885 22.2428 22.1131 22.2001 22.0488L20.2646 19.1457ZM3.51575 23.4375V22.6562H21.4845V23.4375H3.51575Z" fill="black"/>
<path d="M20.3126 0.78125H4.68762C4.37711 0.782177 4.07957 0.90594 3.86001 1.12551C3.64044 1.34508 3.51667 1.64261 3.51575 1.95312V12.1094C3.51667 12.4199 3.64044 12.7174 3.86001 12.937C4.07957 13.1566 4.37711 13.2803 4.68762 13.2812H10.1564V14.8438H8.59387C8.49027 14.8438 8.39091 14.8849 8.31766 14.9582C8.2444 15.0314 8.20325 15.1308 8.20325 15.2344V16.7969C8.20325 16.9005 8.2444 16.9998 8.31766 17.0731C8.39091 17.1463 8.49027 17.1875 8.59387 17.1875H16.4064C16.51 17.1875 16.6093 17.1463 16.6826 17.0731C16.7558 16.9998 16.797 16.9005 16.797 16.7969V15.2344C16.797 15.1308 16.7558 15.0314 16.6826 14.9582C16.6093 14.8849 16.51 14.8438 16.4064 14.8438H14.8439V13.2812H20.3126C20.6231 13.2803 20.9207 13.1566 21.1402 12.937C21.3598 12.7174 21.4836 12.4199 21.4845 12.1094V1.95312C21.4836 1.64261 21.3598 1.34508 21.1402 1.12551C20.9207 0.90594 20.6231 0.782177 20.3126 0.78125ZM16.0157 15.625V16.4062H8.9845V15.625H16.0157ZM10.9376 14.8438V13.2812H14.0626V14.8438H10.9376ZM20.7032 12.1094C20.7032 12.213 20.6621 12.3123 20.5888 12.3856C20.5156 12.4588 20.4162 12.5 20.3126 12.5H4.68762C4.58402 12.5 4.48466 12.4588 4.41141 12.3856C4.33815 12.3123 4.297 12.213 4.297 12.1094V10.9375H20.7032V12.1094ZM20.7032 10.1562H4.297V1.95312C4.297 1.84952 4.33815 1.75017 4.41141 1.67691C4.48466 1.60366 4.58402 1.5625 4.68762 1.5625H20.3126C20.4162 1.5625 20.5156 1.60366 20.5888 1.67691C20.6621 1.75017 20.7032 1.84952 20.7032 1.95312V10.1562Z" fill="black"/>
<path d="M18.3595 11.3281H19.1407V12.1094H18.3595V11.3281Z" fill="black"/>
<path d="M8.9845 9.375H10.547C10.6506 9.375 10.75 9.33385 10.8232 9.26059C10.8965 9.18733 10.9376 9.08798 10.9376 8.98438V8.59375H14.0626V8.98438C14.0626 9.08798 14.1038 9.18733 14.177 9.26059C14.2503 9.33385 14.3496 9.375 14.4532 9.375H16.0157C16.1193 9.375 16.2187 9.33385 16.292 9.26059C16.3652 9.18733 16.4064 9.08798 16.4064 8.98438V7.42188C16.4064 7.31827 16.3652 7.21892 16.292 7.14566C16.2187 7.0724 16.1193 7.03125 16.0157 7.03125H15.6251V4.6875H16.0157C16.1193 4.6875 16.2187 4.64634 16.292 4.57309C16.3652 4.49983 16.4064 4.40048 16.4064 4.29688V2.73438C16.4064 2.63077 16.3652 2.53142 16.292 2.45816C16.2187 2.38491 16.1193 2.34375 16.0157 2.34375H14.4532C14.3496 2.34375 14.2503 2.38491 14.177 2.45816C14.1038 2.53142 14.0626 2.63077 14.0626 2.73438V3.125H10.9376V2.73438C10.9376 2.63077 10.8965 2.53142 10.8232 2.45816C10.75 2.38491 10.6506 2.34375 10.547 2.34375H8.9845C8.8809 2.34375 8.78154 2.38491 8.70828 2.45816C8.63503 2.53142 8.59387 2.63077 8.59387 2.73438V4.29688C8.59387 4.40048 8.63503 4.49983 8.70828 4.57309C8.78154 4.64634 8.8809 4.6875 8.9845 4.6875H9.37512V7.03125H8.9845C8.8809 7.03125 8.78154 7.0724 8.70828 7.14566C8.63503 7.21892 8.59387 7.31827 8.59387 7.42188V8.98438C8.59387 9.08798 8.63503 9.18733 8.70828 9.26059C8.78154 9.33385 8.8809 9.375 8.9845 9.375ZM15.6251 8.59375H14.8439V7.8125H15.6251V8.59375ZM14.8439 3.125H15.6251V3.90625H14.8439V3.125ZM9.37512 3.125H10.1564V3.90625H9.37512V3.125ZM10.1564 4.6875H10.547C10.6506 4.6875 10.75 4.64634 10.8232 4.57309C10.8965 4.49983 10.9376 4.40048 10.9376 4.29688V3.90625H14.0626V4.29688C14.0626 4.40048 14.1038 4.49983 14.177 4.57309C14.2503 4.64634 14.3496 4.6875 14.4532 4.6875H14.8439V7.03125H14.4532C14.3496 7.03125 14.2503 7.0724 14.177 7.14566C14.1038 7.21892 14.0626 7.31827 14.0626 7.42188V7.8125H10.9376V7.42188C10.9376 7.31827 10.8965 7.21892 10.8232 7.14566C10.75 7.0724 10.6506 7.03125 10.547 7.03125H10.1564V4.6875ZM9.37512 7.8125H10.1564V8.59375H9.37512V7.8125Z" fill="black"/>
<path d="M8.9845 20.3125H14.4532V21.0938H8.9845V20.3125Z" fill="black"/>
<path d="M23.3868 14.3906L22.2814 13.2852C22.245 13.2488 22.2017 13.22 22.1541 13.2006C22.1065 13.1811 22.0555 13.1714 22.004 13.1719C21.9532 13.1714 21.9027 13.1812 21.8558 13.2006C21.8088 13.2201 21.7662 13.2489 21.7306 13.2852L16.4806 18.5352C16.4378 18.5779 16.4057 18.6301 16.3868 18.6875L16.1095 19.5156C16.0872 19.5843 16.0841 19.6577 16.1007 19.728C16.1172 19.7982 16.1527 19.8626 16.2032 19.9141L15.6525 20.4688L16.2032 21.0195L16.7579 20.4688C16.7938 20.5048 16.8364 20.5333 16.8833 20.5528C16.9302 20.5722 16.9806 20.5822 17.0314 20.582C17.0738 20.5816 17.1159 20.575 17.1564 20.5625L17.9845 20.2852C18.042 20.2664 18.0941 20.2342 18.1368 20.1914L23.3868 14.9414C23.4596 14.8682 23.5004 14.7692 23.5004 14.666C23.5004 14.5628 23.4596 14.4638 23.3868 14.3906ZM17.6525 19.5742L17.1407 19.7422L16.9259 19.5313L17.0978 19.0195L20.8986 15.2188L21.4532 15.7695L17.6525 19.5742ZM22.004 15.2188L21.4532 14.668L22.004 14.1133L22.5587 14.668L22.004 15.2188Z" fill="black"/>
</svg>
