<svg width="25" height="25" viewBox="0 0 25 25" fill="none" xmlns="http://www.w3.org/2000/svg">
<g clip-path="url(#clip0_11_59)">
<path d="M22.5001 3.75H11.2501V4.58333H22.5001V3.75Z" fill="black"/>
<path d="M18.3335 5.41663H11.2501V6.24996H18.3335V5.41663Z" fill="black"/>
<path d="M18.3335 7.08337H11.2501V7.91671H18.3335V7.08337Z" fill="black"/>
<path d="M22.5001 2.08337H14.5834V2.91671H22.5001V2.08337Z" fill="black"/>
<path d="M13.7501 2.08337H12.9168V2.91671H13.7501V2.08337Z" fill="black"/>
<path d="M12.9168 16.6666H12.0834V17.5H12.9168V16.6666Z" fill="black"/>
<path d="M6.96136 2.79461L6.3722 2.20544L5.53886 3.03878C5.37621 3.20149 5.37621 3.46524 5.53886 3.62794L6.3722 4.46128L6.96136 3.87211L6.42261 3.33336L6.96136 2.79461Z" fill="black"/>
<path d="M10.2947 3.03878L9.46136 2.20544L8.87219 2.79461L9.41094 3.33336L8.87219 3.87211L9.46136 4.46128L10.2947 3.62794C10.4574 3.46524 10.4574 3.20149 10.2947 3.03878Z" fill="black"/>
<path d="M7.93848 1.95109L7.10437 4.45105L7.89448 4.71467L8.72858 2.21471L7.93848 1.95109Z" fill="black"/>
<path d="M21.6668 12.9167V9.58333H20.8335V12.9167H20.0002V8.75H19.1668V12.9167H18.3335V10.8333H17.5002V12.9167H16.6668V10.4167H15.8335V12.9167H15.0002V11.25H14.1668V12.9167H13.3335V13.75H22.5002V12.9167H21.6668Z" fill="black"/>
<path d="M22.0835 0H2.91681C1.53665 0.00135417 0.418163 1.11984 0.416809 2.5V10.6775V10.6812V15.4167V16.6667C0.418163 18.0468 1.53665 19.1653 2.91681 19.1667H8.07598L6.40931 22.5H4.16681C3.47644 22.5 2.91681 23.0596 2.91681 23.75C2.91681 24.4404 3.47644 25 4.16681 25H20.8335C21.5238 25 22.0835 24.4404 22.0835 23.75C22.0835 23.0596 21.5238 22.5 20.8335 22.5H18.591L16.9243 19.1667H22.0835C23.4636 19.1653 24.5821 18.0468 24.5835 16.6667V2.5C24.5821 1.11984 23.4636 0.00135417 22.0835 0ZM1.25014 5.8625L2.19723 6.99C2.27639 7.08432 2.39327 7.13875 2.51639 7.13875H3.79181C3.91493 7.13875 4.03181 7.08432 4.11098 6.99L5.05848 5.8625L5.99348 6.16625L6.09681 7.63417C6.10535 7.75693 6.16775 7.86964 6.26723 7.94208L7.29931 8.69208C7.39915 8.76417 7.52561 8.7887 7.64514 8.75917L9.07556 8.40375L9.65389 9.19917L8.87431 10.4492C8.80973 10.554 8.79478 10.6819 8.83348 10.7987L9.22806 12.0117C9.26603 12.1286 9.35368 12.2229 9.46764 12.2692L10.8335 12.8229V13.8062L9.46681 14.36C9.35259 14.406 9.26478 14.5006 9.22723 14.6179L9.10223 15H6.70181C7.63556 13.045 6.80764 10.7032 4.85264 9.76943C3.70436 9.22099 2.36134 9.26359 1.25014 9.88375V5.8625ZM1.25014 10.875C2.59785 9.82359 4.54275 10.0638 5.5941 11.4116C6.40587 12.4521 6.46853 13.8929 5.75014 15H1.25014V10.875ZM20.8335 23.3333C21.0636 23.3333 21.2501 23.5199 21.2501 23.75C21.2501 23.9801 21.0636 24.1667 20.8335 24.1667H4.16681C3.9367 24.1667 3.75014 23.9801 3.75014 23.75C3.75014 23.5199 3.9367 23.3333 4.16681 23.3333H20.8335ZM17.6593 22.5H7.34098L9.00764 19.1667H15.9926L17.6593 22.5ZM23.7501 16.6667C23.7501 17.5871 23.0039 18.3333 22.0835 18.3333H2.91681C1.99634 18.3333 1.25014 17.5871 1.25014 16.6667V15.8333H5.96764H5.97139H23.7501V16.6667ZM23.7501 15H10.1064L11.4068 14.4729C11.5639 14.4092 11.6667 14.2566 11.6668 14.0871V12.5417C11.6669 12.372 11.564 12.2192 11.4068 12.1554L9.95848 11.5696L9.68431 10.7258L10.5101 9.40083C10.5997 9.25688 10.5931 9.07302 10.4935 8.93583L9.58514 7.68583C9.4854 7.54849 9.31238 7.48536 9.14764 7.52625L7.63264 7.90125L6.91681 7.38125L6.80723 5.82708C6.7953 5.65766 6.6817 5.5124 6.52014 5.46L5.05139 4.9825C4.88978 4.93104 4.71311 4.98182 4.60348 5.11125L3.60056 6.305H2.71181L1.70848 5.11125C1.59879 4.98167 1.42186 4.93083 1.26014 4.9825L1.25014 4.98625V2.5C1.25014 1.57953 1.99634 0.833333 2.91681 0.833333H22.0835C23.0039 0.833333 23.7501 1.57953 23.7501 2.5V15Z" fill="black"/>
</g>
<defs>
<clipPath id="clip0_11_59">
<rect width="25" height="25" fill="white"/>
</clipPath>
</defs>
</svg>
