<svg width="20" height="19" viewBox="0 0 20 19" fill="none" xmlns="http://www.w3.org/2000/svg">
<path d="M10.0003 -0.000202179C4.47527 -0.000202179 0.000274658 4.36147 0.000274658 9.74087C0.000274658 14.0455 2.86527 17.696 6.83777 18.983C7.33777 19.0747 7.52111 18.7732 7.52111 18.5146C7.52111 18.2833 7.51277 17.6704 7.50861 16.8583C4.72694 17.4457 4.14027 15.5515 4.14027 15.5515C3.68527 14.4272 3.02777 14.1265 3.02777 14.1265C2.12194 13.5226 3.09777 13.535 3.09777 13.535C4.10194 13.6028 4.62944 14.5387 4.62944 14.5387C5.52111 16.0281 6.97027 15.5977 7.54194 15.3491C7.63194 14.7188 7.88944 14.2901 8.17527 14.0464C5.95444 13.8027 3.62027 12.965 3.62027 9.23283C3.62027 8.16968 4.00777 7.30064 4.64944 6.61913C4.53694 6.37296 4.19944 5.3825 4.73694 4.04096C4.73694 4.04096 5.57444 3.77992 7.48694 5.03968C8.28694 4.82325 9.13694 4.71586 9.98694 4.7109C10.8369 4.71586 11.6869 4.82325 12.4869 5.03968C14.3869 3.77992 15.2244 4.04096 15.2244 4.04096C15.7619 5.3825 15.4244 6.37296 15.3244 6.61913C15.9619 7.30064 16.3494 8.16968 16.3494 9.23283C16.3494 12.975 14.0119 13.7985 11.7869 14.0381C12.1369 14.3305 12.4619 14.9278 12.4619 15.8406C12.4619 17.1442 12.4494 18.1916 12.4494 18.508C12.4494 18.7633 12.6244 19.0681 13.1369 18.9706C17.1378 17.6918 20.0003 14.0389 20.0003 9.74087C20.0003 4.36147 15.5228 -0.000202179 10.0003 -0.000202179Z" fill="#212121"/>
</svg>
