<svg width="20" height="20" viewBox="0 0 20 20" fill="none" xmlns="http://www.w3.org/2000/svg">
<path d="M13.7498 -0.000202179L6.24979 -0.000202179C2.79854 -0.000202179 -0.000213623 2.79855 -0.000213623 6.2498L-0.000213623 13.7498C-0.000213623 17.201 2.79854 19.9998 6.24979 19.9998H13.7498C17.201 19.9998 19.9998 17.201 19.9998 13.7498V6.2498C19.9998 2.79855 17.201 -0.000202179 13.7498 -0.000202179ZM18.1248 13.7498C18.1248 16.1623 16.1623 18.1248 13.7498 18.1248H6.24979C3.83729 18.1248 1.87479 16.1623 1.87479 13.7498V6.2498C1.87479 3.8373 3.83729 1.8748 6.24979 1.8748H13.7498C16.1623 1.8748 18.1248 3.8373 18.1248 6.2498V13.7498Z" fill="black"/>
<path d="M9.99979 4.9998C7.23854 4.9998 4.99979 7.23855 4.99979 9.9998C4.99979 12.761 7.23854 14.9998 9.99979 14.9998C12.761 14.9998 14.9998 12.761 14.9998 9.9998C14.9998 7.23855 12.761 4.9998 9.99979 4.9998ZM9.99979 13.1248C8.27729 13.1248 6.87479 11.7223 6.87479 9.9998C6.87479 8.27605 8.27729 6.8748 9.99979 6.8748C11.7223 6.8748 13.1248 8.27605 13.1248 9.9998C13.1248 11.7223 11.7223 13.1248 9.99979 13.1248Z" fill="black"/>
<path d="M15.3748 5.29103C15.7427 5.29103 16.041 4.99274 16.041 4.62479C16.041 4.25683 15.7427 3.95854 15.3748 3.95854C15.0068 3.95854 14.7085 4.25683 14.7085 4.62479C14.7085 4.99274 15.0068 5.29103 15.3748 5.29103Z" fill="black"/>
</svg>
