<svg width="30" height="30" viewBox="0 0 30 30" fill="none" xmlns="http://www.w3.org/2000/svg">
<path d="M15.0001 30C23.2864 30 30.0001 23.2863 30.0001 15C30.0001 6.71375 23.2864 0 15.0001 0C6.71387 0 0.00012207 6.71375 0.00012207 15C0.00012207 23.2863 6.71387 30 15.0001 30ZM6.86387 14.675L21.3264 9.09875C21.9976 8.85625 22.5839 9.2625 22.3664 10.2775L22.3676 10.2762L19.9051 21.8775C19.7226 22.7 19.2339 22.9 18.5501 22.5125L14.8001 19.7487L12.9914 21.4913C12.7914 21.6913 12.6226 21.86 12.2351 21.86L12.5014 18.0438L19.4514 11.765C19.7539 11.4987 19.3839 11.3488 18.9851 11.6138L10.3964 17.0212L6.69387 15.8663C5.89012 15.6112 5.87262 15.0625 6.86387 14.675Z" fill="black"/>
</svg>
