<svg width="21" height="25" viewBox="0 0 21 25" fill="none" xmlns="http://www.w3.org/2000/svg">
<path d="M17.717 16.333L16.2498 15.9022L13.0576 13.8172V13.3394C13.9818 12.6423 14.6165 11.5767 14.7344 10.3553C15.198 10.2807 15.5531 9.87789 15.5531 9.39371V8.07999C15.5531 8.07491 15.5526 8.06993 15.5523 8.06486V6.4007C15.737 6.26847 15.8542 6.05309 15.8542 5.81149V4.28854L18.0571 3.91329C18.4192 3.85162 18.6796 3.56407 18.7051 3.19772C18.7306 2.83136 18.5127 2.51046 18.1628 2.39918L10.7362 0.0369751C10.5812 -0.0123413 10.4175 -0.0122925 10.2626 0.0369263L2.83591 2.39918C2.48596 2.51046 2.26799 2.83136 2.29352 3.19767C2.30974 3.43043 2.42097 3.63112 2.59265 3.76256V5.75411H2.57448C2.15627 5.75411 1.81603 6.09435 1.81603 6.51256V7.50113L1.32643 10.3748C1.24182 10.8718 1.62463 11.3267 2.13 11.3267H3.78767C4.29191 11.3267 4.67604 10.8729 4.59123 10.3747L4.10163 7.50113V6.51256C4.10163 6.09435 3.7614 5.75411 3.34318 5.75411H3.32507V3.97858L5.14606 4.28873V5.81149C5.14606 6.05206 5.26271 6.2671 5.4465 6.39952L5.44719 8.08014V9.39371C5.44719 9.87794 5.80231 10.2807 6.26584 10.3553C6.38376 11.576 7.01774 12.6411 7.94108 13.3383V13.8183L4.74958 15.9029L3.28351 16.3332C1.71472 16.7937 0.607001 18.2339 0.607001 19.9082V20.9996C0.607001 21.2018 0.770917 21.3658 0.973212 21.3658C1.17551 21.3658 1.33942 21.2019 1.33942 20.9996V19.9082C1.33942 18.5886 2.22365 17.4075 3.48981 17.0359L4.85583 16.635L10.3132 19.8778C10.4239 19.9436 10.5705 19.9471 10.6873 19.8778L16.1449 16.6348L17.5108 17.0358C18.7768 17.4074 19.661 18.5885 19.661 19.9079V23.4449C19.661 23.8986 19.2919 24.2677 18.8383 24.2677H17.2241V22.6892C17.2241 22.4869 17.0602 22.323 16.8579 22.323C16.6557 22.323 16.4917 22.4869 16.4917 22.6892V24.2677H4.50695V22.6892C4.50695 22.4869 4.34304 22.323 4.14074 22.323C3.93845 22.323 3.77453 22.4869 3.77453 22.6892V24.2677H2.16208C1.70842 24.2677 1.33933 23.8986 1.33933 23.4449V22.7114C1.33933 22.5092 1.17541 22.3452 0.973114 22.3452C0.770819 22.3452 0.606903 22.5091 0.606903 22.7114V23.4449C0.606903 24.3024 1.30451 25 2.16203 25H18.8382C19.6957 25 20.3933 24.3024 20.3933 23.4449V19.9079C20.3933 18.2731 19.3234 16.8046 17.717 16.333ZM3.78762 10.5943H2.13C2.07878 10.5943 2.03972 10.5485 2.04841 10.4977L2.49128 7.8983H3.42634L3.86921 10.4977C3.87785 10.5484 3.83908 10.5943 3.78762 10.5943ZM3.36921 6.51256V7.16593H2.54836V6.51256C2.54836 6.49816 2.56003 6.48649 2.57443 6.48649H3.34309C3.35754 6.48644 3.36921 6.49816 3.36921 6.51256ZM9.1904 18.2213L9.33615 18.4453L5.59743 16.2237L7.97053 14.6737C8.07814 15.9364 8.49436 17.1515 9.1904 18.2213ZM9.18786 16.6404C10.0498 16.7629 10.9499 16.763 11.8124 16.6404C11.6457 17.0505 11.4404 17.4462 11.196 17.8219L10.5001 18.8914L9.80427 17.8219C9.55988 17.4462 9.35451 17.0505 9.18786 16.6404ZM11.8098 18.2213C12.5059 17.1515 12.9221 15.9364 13.0297 14.6737L15.4028 16.2237L11.6641 18.4453L11.8098 18.2213ZM13.952 6.53707H14.8199V7.71373H14.3891C14.1481 7.71373 13.9519 7.51764 13.9519 7.27657V6.53707H13.952ZM3.05788 3.09713L10.4847 0.734827C10.4942 0.731799 10.5045 0.73175 10.5141 0.734876L17.9409 3.09713C17.9562 3.10201 17.9773 3.10865 17.9746 3.14679C17.9719 3.18488 17.9502 3.18854 17.9342 3.19127L15.4788 3.60948L14.5569 3.49547C14.3563 3.47062 14.1734 3.61329 14.1486 3.81398C14.1238 4.01471 14.2664 4.19752 14.4671 4.22233L15.1218 4.30333V5.8047L5.87844 5.80436V4.30328L9.66784 3.83439C10.2198 3.76617 10.7794 3.76617 11.3309 3.83439L12.7652 4.01178C12.9658 4.03663 13.1487 3.89401 13.1736 3.69332C13.1984 3.49259 13.0558 3.30978 12.8551 3.28492L11.4209 3.10753C10.8097 3.0319 10.1896 3.0319 9.57795 3.10753L5.52062 3.60958L3.06442 3.19127C3.04851 3.18854 3.02678 3.18488 3.02409 3.14679C3.02145 3.10865 3.0425 3.10197 3.05788 3.09713ZM6.17936 7.71373L6.17888 6.53707H7.04826V7.27662C7.04826 7.51764 6.85217 7.71378 6.61105 7.71378H6.17936V7.71373ZM6.98537 10.1671C6.96652 9.86886 6.71867 9.63527 6.42116 9.63527C6.28791 9.63527 6.17951 9.52687 6.17951 9.39366V8.44615H6.61105C7.25593 8.44615 7.78063 7.9215 7.78063 7.27662V6.53707H13.2196V7.27662C13.2196 7.9215 13.7443 8.44615 14.3891 8.44615H14.8207V9.39366C14.8207 9.52687 14.7123 9.63527 14.579 9.63527C14.2815 9.63527 14.0337 9.86886 14.0148 10.1671C13.8982 12.0162 12.3543 13.4647 10.5001 13.4647C8.64582 13.4647 7.10202 12.0162 6.98537 10.1671ZM10.5001 14.197C11.1514 14.197 11.7705 14.0481 12.3252 13.7833V14.0154C12.3252 14.6415 12.2407 15.2591 12.0781 15.8548C11.0829 16.0446 9.95773 16.0523 8.92214 15.8548C8.75949 15.2592 8.67502 14.6416 8.67502 14.0154C8.67502 14.0076 8.67395 14.0001 8.67346 13.9924C8.67336 13.9909 8.67351 13.9894 8.67341 13.9879V13.7826C9.22853 14.0478 9.84816 14.197 10.5001 14.197Z" fill="black"/>
</svg>
